<svg version="1.0" xmlns="http://www.w3.org/2000/svg"
 width="200.000000pt" height="200.000000pt" viewBox="0 0 200.000000 200.000000"
 preserveAspectRatio="xMidYMid meet">
<g transform="translate(0.000000,200.000000) scale(0.100000,-0.100000)"
fill="red" stroke="none">
<path d="M965 1747 c-105 -140 -163 -265 -191 -413 -11 -55 -23 -93 -33 -98
-35 -21 -112 -101 -140 -144 -36 -57 -71 -159 -71 -206 0 -31 -7 -41 -68 -90
-91 -73 -167 -169 -224 -284 -50 -99 -57 -132 -35 -150 24 -21 180 -33 275
-22 90 10 202 39 255 67 26 13 33 12 95 -14 59 -24 80 -27 172 -27 92 0 113 3
172 27 62 26 69 27 95 14 53 -28 165 -57 255 -67 95 -11 251 1 275 22 22 18
15 58 -26 142 -52 105 -130 207 -217 279 -67 57 -69 60 -81 125 -24 122 -85
225 -182 304 -40 33 -51 48 -51 70 0 158 -159 478 -238 478 -15 0 -32 -6 -37
-13z m115 -212 c35 -71 86 -232 76 -242 -2 -2 -23 1 -47 6 -58 14 -164 14
-212 0 -22 -6 -41 -8 -44 -5 -10 10 26 139 58 206 17 36 44 87 61 114 l31 48
19 -23 c10 -13 36 -60 58 -104z m38 -325 l42 -13 0 -58 c0 -32 -5 -80 -11
-107 l-10 -50 -137 2 -137 1 -12 55 c-13 64 -16 160 -5 160 4 1 30 7 57 15 56
17 148 14 213 -5z m-339 -233 c1 -10 -7 -20 -16 -23 -10 -3 -46 -17 -81 -30
-34 -13 -64 -24 -66 -24 -8 0 16 74 36 113 11 22 38 59 61 84 l42 45 12 -73
c6 -41 12 -82 12 -92z m531 99 c36 -47 87 -162 77 -172 -2 -2 -32 7 -68 20
-35 14 -72 27 -83 30 -15 5 -17 12 -12 39 4 17 10 56 13 85 4 34 10 52 19 52
7 0 32 -24 54 -54z m-247 -172 l47 -7 -35 -66 c-20 -36 -44 -77 -55 -91 l-20
-25 -20 25 c-24 31 -80 134 -80 148 0 10 24 15 96 20 12 1 42 -1 67 -4z m-217
-96 c20 -40 50 -92 67 -115 30 -42 30 -43 11 -64 -10 -12 -47 -42 -82 -67 -58
-41 -65 -44 -87 -32 -52 28 -125 148 -140 232 -7 35 -6 37 36 59 41 20 134 57
151 58 4 1 24 -32 44 -71z m473 26 l74 -34 -6 -41 c-8 -59 -59 -158 -107 -204
l-41 -40 -43 23 c-23 13 -65 42 -91 66 l-49 43 47 70 c25 38 55 91 66 117 19
43 23 46 48 40 16 -3 61 -21 102 -40z m-779 -112 c0 -31 66 -156 108 -203 l41
-46 -72 -23 c-53 -17 -106 -24 -201 -27 l-128 -5 7 23 c19 65 119 205 187 263
47 40 58 44 58 18z m1032 -71 c59 -64 138 -190 138 -221 0 -21 -241 -7 -322
19 -38 12 -68 24 -68 28 0 3 18 26 41 50 40 43 99 153 99 184 0 46 28 30 112
-60z m-523 -104 c25 -23 57 -49 71 -58 14 -9 22 -20 18 -24 -17 -18 -140 -29
-204 -18 -36 6 -69 14 -72 17 -3 4 5 14 19 23 13 10 44 36 69 60 25 23 47 43
49 43 2 0 25 -19 50 -43z"/>
</g>
</svg>
